<?xml version="1.0" encoding="UTF-8" standalone="no"?>
<svg
   width="24px"
   height="24px"
   stroke-width="1.5"
   viewBox="0 0 24 24"
   fill="none"
   color="#000000"
   version="1.1"
   id="svg8"
   sodipodi:docname="database.svg"
   inkscape:version="1.2.2 (b0a8486, 2022-12-01)"
   xmlns:inkscape="http://www.inkscape.org/namespaces/inkscape"
   xmlns:sodipodi="http://sodipodi.sourceforge.net/DTD/sodipodi-0.dtd"
   xmlns="http://www.w3.org/2000/svg"
   xmlns:svg="http://www.w3.org/2000/svg">
  <defs
     id="defs12" />
  <sodipodi:namedview
     id="namedview10"
     pagecolor="#ffffff"
     bordercolor="#000000"
     borderopacity="0.25"
     inkscape:showpageshadow="2"
     inkscape:pageopacity="0.0"
     inkscape:pagecheckerboard="0"
     inkscape:deskcolor="#d1d1d1"
     showgrid="false"
     inkscape:zoom="9.8333333"
     inkscape:cx="13.627119"
     inkscape:cy="9.559322"
     inkscape:window-width="1658"
     inkscape:window-height="1100"
     inkscape:window-x="0"
     inkscape:window-y="25"
     inkscape:window-maximized="0"
     inkscape:current-layer="layer1"
     showguides="false" />
  <g
     inkscape:groupmode="layer"
     id="layer1"
     inkscape:label="dark-background">
    <rect
       style="fill:#000000;stroke:none;stroke-width:1.836"
       id="rect294"
       width="23.084745"
       height="22.983051"
       x="0.40677989"
       y="0.40677953"
       ry="3.5593221" />
  </g>
  <path
     d="M5 12V18C5 18 5 21 12 21C19 21 19 18 19 18V12"
     stroke="#000000"
     stroke-width="1.5"
     id="path2"
     style="stroke:#ffffff;stroke-opacity:1;fill:#000000;fill-opacity:1" />
  <path
     d="M5 6V12C5 12 5 15 12 15C19 15 19 12 19 12V6"
     stroke="#000000"
     stroke-width="1.5"
     id="path4"
     style="fill:#000000;fill-opacity:1;stroke:#ffffff;stroke-opacity:1" />
  <path
     d="M12 3C19 3 19 6 19 6C19 6 19 9 12 9C5 9 5 6 5 6C5 6 5 3 12 3Z"
     stroke="#000000"
     stroke-width="1.5"
     id="path6"
     style="stroke-width:1.5;stroke-dasharray:none;fill:#000000;fill-opacity:1;stroke:#ffffff;stroke-opacity:1" />
  <rect
     style="fill:#000000;fill-opacity:1;stroke:#ffffff;stroke-width:0.931596;stroke-dasharray:none;stroke-opacity:1"
     id="rect6972"
     width="0.87348837"
     height="0.77179348"
     x="11.444613"
     y="11.376816" />
  <rect
     style="fill:#000000;fill-opacity:1;stroke:#ffffff;stroke-width:0.931596;stroke-dasharray:none;stroke-opacity:1"
     id="rect6972-6"
     width="0.87348837"
     height="0.77179348"
     x="11.359865"
     y="17.444613" />
  <path
     style="fill:none;fill-opacity:1;stroke:#ffffff;stroke-width:1.4114;stroke-dasharray:none;stroke-opacity:1"
     id="path8610"
     sodipodi:type="arc"
     sodipodi:cx="10.245257"
     sodipodi:cy="8.8194733"
     sodipodi:rx="5.2307415"
     sodipodi:ry="2.8917584"
     sodipodi:start="1.5707963"
     sodipodi:end="3.1415927"
     sodipodi:open="true"
     sodipodi:arc-type="arc"
     d="M 10.245257,11.711232 A 5.2307415,2.8917584 0 0 1 6.5465646,10.864255 5.2307415,2.8917584 0 0 1 5.0145159,8.8194733" />
  <path
     style="fill:none;fill-opacity:1;stroke:#ffffff;stroke-width:1.4114;stroke-dasharray:none;stroke-opacity:1"
     id="path8610-4"
     sodipodi:type="arc"
     sodipodi:cx="10.18856"
     sodipodi:cy="14.980932"
     sodipodi:rx="5.2307415"
     sodipodi:ry="2.8917584"
     sodipodi:start="1.5707963"
     sodipodi:end="3.1415927"
     sodipodi:open="true"
     sodipodi:arc-type="arc"
     d="M 10.18856,17.872691 A 5.2307415,2.8917584 0 0 1 6.4898667,17.025714 5.2307415,2.8917584 0 0 1 4.957818,14.980932" />
</svg>
